<?xml version="1.0" encoding="UTF-8"?>
<svg width="176px" height="52px" viewBox="0 0 176 52" version="1.1" xmlns="http://www.w3.org/2000/svg" xmlns:xlink="http://www.w3.org/1999/xlink">
    <title>russia-appgallery</title>
    <defs>
        <polygon id="path-1" points="0.1038752 0.0311376 11.639264 0.0311376 11.639264 16.2239376 0.1038752 16.2239376"></polygon>
        <polygon id="path-3" points="0 0.061984 33.7575264 0.061984 33.7575264 33.8193232 0 33.8193232"></polygon>
    </defs>
    <g id="Page-1" stroke="none" stroke-width="1" fill="none" fill-rule="evenodd">
        <g id="Huawei" transform="translate(-17.000000, -83.000000)">
            <g id="russia-appgallery" transform="translate(17.000000, 83.000000)">
                <path d="M169,52 L6.5,52 C2.86,52 0,49.14 0,45.5 L0,6.5 C0,2.86 2.86,0 6.5,0 L169,0 C172.64,0 175.5,2.86 175.5,6.5 L175.5,45.5 C175.5,49.14 172.64,52 169,52 Z" id="Shape" fill="#000000" fill-rule="nonzero"></path>
                <g id="rus" transform="translate(10.400000, 7.800000)">
                    <path d="M48.6479344,24.3336496 L53.2303824,24.3336496 L51.5894704,19.9413136 C51.3639984,19.3345776 51.1420624,18.6648176 50.9228304,17.9307856 C50.7250224,18.5797456 50.5101584,19.2430576 50.2776144,19.9205136 L48.6479344,24.3336496 Z M54.0130864,26.4184336 L47.8750064,26.4184336 L46.3724144,30.5249776 L43.6736144,30.5249776 L49.6848144,15.1895536 L52.2355184,15.1895536 L58.3839984,30.5249776 L55.5479184,30.5249776 L54.0130864,26.4184336 Z" id="Fill-1" fill="#FEFEFE"></path>
                    <path d="M66.4757184,27.7360928 C67.0084064,27.0201568 67.2748544,25.9741248 67.2748544,24.5982048 C67.2748544,23.3210848 67.0545824,22.3952768 66.6132064,21.8199488 C66.1718304,21.2448288 65.5850624,20.9577888 64.8512384,20.9577888 C64.3428864,20.9577888 63.8736384,21.0773888 63.4434944,21.3172128 C63.0135584,21.5570368 62.6035904,21.8781888 62.2160864,22.2804608 L62.2160864,28.3977408 C62.4765024,28.5248288 62.7801824,28.6252928 63.1258784,28.6993408 C63.4715744,28.7733888 63.8135264,28.8104128 64.1529824,28.8104128 C65.1690624,28.8104128 65.9428224,28.4520288 66.4757184,27.7360928 L66.4757184,27.7360928 Z M59.6019424,21.8996128 C59.6019424,21.0526368 59.5732384,20.1216288 59.5174944,19.1051328 L61.9725184,19.1051328 C62.0638304,19.5783328 62.1272704,20.0615168 62.1630464,20.5555168 C63.1789184,19.4477088 64.3428864,18.8935968 65.6555744,18.8935968 C66.4172704,18.8935968 67.1234304,19.0859968 67.7719744,19.4703808 C68.4213504,19.8551808 68.9455104,20.4619168 69.3442464,21.2905888 C69.7427744,22.1198848 69.9422464,23.1731968 69.9422464,24.4499008 C69.9422464,25.7833888 69.7140704,26.9230208 69.2587584,27.8683808 C68.8042784,28.8139488 68.1671744,29.5298848 67.3489024,30.0168128 C66.5306304,30.5035328 65.5850624,30.7473088 64.5126144,30.7473088 C63.7361504,30.7473088 62.9709184,30.6162688 62.2160864,30.3556448 L62.2160864,35.0755808 L59.6019424,35.2979328 L59.6019424,21.8996128 Z" id="Fill-3" fill="#FEFEFE"></path>
                    <path d="M78.4890288,27.7360928 C79.0219248,27.0201568 79.2881648,25.9741248 79.2881648,24.5982048 C79.2881648,23.3210848 79.0678928,22.3952768 78.6267248,21.8199488 C78.1853488,21.2448288 77.5985808,20.9577888 76.8645488,20.9577888 C76.3561968,20.9577888 75.8869488,21.0773888 75.4570128,21.3172128 C75.0268688,21.5570368 74.6169008,21.8781888 74.2293968,22.2804608 L74.2293968,28.3977408 C74.4898128,28.5248288 74.7937008,28.6252928 75.1393968,28.6993408 C75.4848848,28.7733888 75.8270448,28.8104128 76.1665008,28.8104128 C77.1823728,28.8104128 77.9563408,28.4520288 78.4890288,27.7360928 L78.4890288,27.7360928 Z M71.6152528,21.8996128 C71.6152528,21.0526368 71.5865488,20.1216288 71.5308048,19.1051328 L73.9858288,19.1051328 C74.0771408,19.5783328 74.1407888,20.0615168 74.1765648,20.5555168 C75.1922288,19.4477088 76.3561968,18.8935968 77.6690928,18.8935968 C78.4307888,18.8935968 79.1367408,19.0859968 79.7852848,19.4703808 C80.4346608,19.8551808 80.9588208,20.4619168 81.3575568,21.2905888 C81.7562928,22.1198848 81.9555568,23.1731968 81.9555568,24.4499008 C81.9555568,25.7833888 81.7273808,26.9230208 81.2720688,27.8683808 C80.8177968,28.8139488 80.1804848,29.5298848 79.3622128,30.0168128 C78.5439408,30.5035328 77.5985808,30.7473088 76.5259248,30.7473088 C75.7494608,30.7473088 74.9842288,30.6162688 74.2293968,30.3556448 L74.2293968,35.0755808 L71.6152528,35.2979328 L71.6152528,21.8996128 Z" id="Fill-5" fill="#FEFEFE"></path>
                    <path d="M86.8871328,29.799744 C85.7581088,29.175536 84.8901248,28.281136 84.2833888,27.117168 C83.6766528,25.952784 83.3735968,24.576864 83.3735968,22.989408 C83.3735968,21.268 83.7228288,19.805552 84.4208768,18.60248 C85.1199648,17.399824 86.0705248,16.49648 87.2735968,15.89328 C88.4758368,15.29008 89.8251328,14.98848 91.3216928,14.98848 C92.2036128,14.98848 93.0445568,15.085408 93.8453568,15.27968 C94.6461568,15.473744 95.3922528,15.739776 96.0842688,16.0784 L95.4174208,18.089344 C94.0273568,17.426448 92.7005248,17.094688 91.4381728,17.094688 C90.3727968,17.094688 89.4395008,17.321824 88.6387008,17.777136 C87.8376928,18.232032 87.2153568,18.900544 86.7704448,19.78288 C86.3265728,20.6648 86.1035968,21.729968 86.1035968,22.979008 C86.1035968,24.072464 86.2751968,25.042576 86.6173568,25.889344 C86.9593088,26.735904 87.4990688,27.406704 88.2364288,27.900288 C88.9737888,28.394288 89.9035488,28.640976 91.0248768,28.640976 C91.5332288,28.640976 92.0415808,28.598752 92.5491008,28.513888 C93.0574528,28.42944 93.5337728,28.305888 93.9776448,28.143648 L93.9776448,25.042576 L90.4327008,25.042576 L90.4327008,23.010832 L96.5179488,23.010832 L96.5179488,29.466736 C95.6428928,29.875872 94.7237408,30.189744 93.7609088,30.40856 C92.7980768,30.627168 91.8404448,30.736368 90.8871808,30.736368 C89.3490208,30.736368 88.0161568,30.424368 86.8871328,29.799744" id="Fill-7" fill="#FEFEFE"></path>
                    <path d="M104.370906,28.4081408 C104.914202,28.1475168 105.359114,27.8228288 105.704602,27.4344928 L105.704602,25.3178848 C104.991578,25.2403008 104.41001,25.2014048 103.958442,25.2014048 C102.878922,25.2014048 102.132826,25.3761248 101.720154,25.7251488 C101.307482,26.0747968 101.101146,26.5457088 101.101146,27.1380928 C101.101146,27.7026048 101.250906,28.1208928 101.550426,28.3925408 C101.850778,28.6639808 102.25825,28.7998048 102.772634,28.7998048 C103.294922,28.7998048 103.827818,28.6693888 104.370906,28.4081408 L104.370906,28.4081408 Z M105.936938,30.5249568 C105.845626,30.0804608 105.785722,29.5760608 105.757642,29.0113408 C105.35537,29.4914048 104.831418,29.8988768 104.18537,30.2337568 C103.54057,30.5688448 102.811738,30.7364928 102.000538,30.7364928 C101.34409,30.7364928 100.74609,30.6075328 100.20633,30.3502368 C99.6665696,30.0927328 99.2382976,29.7048128 98.9204736,29.1860608 C98.6028576,28.6677248 98.4443616,28.0343648 98.4443616,27.2863968 C98.4443616,26.1787968 98.8430976,25.2952128 99.6403616,24.6352288 C100.437834,23.9754528 101.767162,23.6455648 103.63001,23.6455648 C104.329306,23.6455648 105.020282,23.6950688 105.704602,23.7938688 L105.704602,23.5715168 C105.704602,22.5625088 105.48953,21.8517728 105.058762,21.4391008 C104.628618,21.0264288 104.011274,20.8196768 103.206938,20.8196768 C102.649914,20.8196768 102.053578,20.9012128 101.418138,21.0634528 C100.78353,21.2259008 100.225466,21.4195488 99.7458176,21.6454368 L99.3331456,19.7403648 C99.7988576,19.5288288 100.412666,19.3345568 101.175194,19.1583808 C101.93689,18.9819968 102.741434,18.8935968 103.588202,18.8935968 C104.57537,18.8935968 105.415482,19.0437728 106.106874,19.3437088 C106.798058,19.6436448 107.337818,20.1584448 107.725946,20.8885248 C108.114282,21.6188128 108.308554,22.6016128 108.308554,23.8360928 L108.308554,28.3763168 C108.308554,28.8491008 108.336218,29.5654528 108.392794,30.5249568 L105.936938,30.5249568 Z" id="Fill-9" fill="#FEFEFE"></path>
                    <path d="M110.595285,27.7835168 L110.595285,14.2897248 L113.198197,14.0781888 L113.198197,27.3182208 C113.198197,27.8049408 113.280981,28.1487648 113.447173,28.3499008 C113.612533,28.5508288 113.875653,28.6515008 114.235909,28.6515008 C114.397733,28.6515008 114.627781,28.6128128 114.923765,28.5352288 L115.230981,30.4086848 C114.983669,30.5074848 114.681653,30.5867328 114.325557,30.6468448 C113.969669,30.7063328 113.632709,30.7364928 113.314885,30.7364928 C111.501541,30.7364928 110.595285,29.7522368 110.595285,27.7835168" id="Fill-11" fill="#FEFEFE"></path>
                    <path d="M117.104208,27.7835168 L117.104208,14.2897248 L119.707328,14.0781888 L119.707328,27.3182208 C119.707328,27.8049408 119.789904,28.1487648 119.956096,28.3499008 C120.121664,28.5508288 120.384576,28.6515008 120.744832,28.6515008 C120.906656,28.6515008 121.136704,28.6128128 121.432688,28.5352288 L121.739904,30.4086848 C121.4928,30.5074848 121.190576,30.5867328 120.834688,30.6468448 C120.478592,30.7063328 120.141632,30.7364928 119.823808,30.7364928 C118.010464,30.7364928 117.104208,29.7522368 117.104208,27.7835168" id="Fill-13" fill="#FEFEFE"></path>
                    <path d="M130.026624,23.4870272 C129.977952,22.5770272 129.747904,21.8939552 129.338768,21.4390592 C128.92984,20.9837472 128.383008,20.7566112 127.698896,20.7566112 C127.035376,20.7566112 126.483552,20.9856192 126.042176,21.4442592 C125.601632,21.9031072 125.313552,22.5838912 125.179392,23.4870272 L130.026624,23.4870272 Z M132.577328,25.1485312 L125.105344,25.1485312 C125.225568,27.5403232 126.364992,28.7363232 128.523824,28.7363232 C129.060256,28.7363232 129.608544,28.6710112 130.170144,28.5403872 C130.730912,28.4097632 131.2688,28.2354592 131.784016,28.0164352 L132.355184,29.8052352 C131.078272,30.4261152 129.642656,30.7364512 128.047712,30.7364512 C126.83424,30.7364512 125.811296,30.5074432 124.978256,30.0485952 C124.146256,29.5899552 123.520176,28.9303872 123.0996,28.0694752 C122.680064,27.2089792 122.4704,26.1716832 122.4704,24.9577952 C122.4704,23.6950272 122.692128,22.6086432 123.13704,21.6984352 C123.581952,20.7878112 124.20096,20.0932992 124.994896,19.6134432 C125.787792,19.1333792 126.703616,18.8937632 127.740496,18.8937632 C128.820016,18.8937632 129.721904,19.1460672 130.445328,19.6506752 C131.167712,20.1550752 131.703936,20.8271232 132.054,21.6668192 C132.403232,22.5063072 132.577328,23.4339872 132.577328,24.4498592 L132.577328,25.1485312 Z" id="Fill-15" fill="#FEFEFE"></path>
                    <path d="M134.683869,21.97364 C134.683869,21.34548 134.655165,20.38972 134.599421,19.105112 L137.044045,19.105112 C137.086685,19.422936 137.126621,19.80212 137.165933,20.24308 C137.203997,20.684248 137.231037,21.042008 137.244973,21.317192 C137.548029,20.816328 137.846509,20.39492 138.138957,20.05276 C138.431613,19.7106 138.774605,19.431672 139.166269,19.2166 C139.557309,19.001112 140.003677,18.893576 140.504125,18.893576 C140.906397,18.893576 141.252093,18.936008 141.542045,19.020664 L141.213821,21.285368 C140.959645,21.207992 140.677389,21.169304 140.366637,21.169304 C139.753037,21.169304 139.216813,21.326344 138.757965,21.640216 C138.299325,21.954088 137.809069,22.471176 137.287821,23.190648 L137.287821,30.524936 L134.683869,30.524936 L134.683869,21.97364 Z" id="Fill-17" fill="#FEFEFE"></path>
                    <g id="Group-21" transform="translate(142.064000, 19.074016)">
                        <mask id="mask-2" fill="white">
                            <use xlink:href="#path-1"></use>
                        </mask>
                        <g id="Clip-20"></g>
                        <path d="M1.0459072,16.1234736 C0.6644352,16.0564976 0.3511872,15.9805776 0.1038752,15.8957136 L0.5801952,13.9910576 C0.7557472,14.0401456 0.9789312,14.0877776 1.2470432,14.1339536 C1.5151552,14.1795056 1.7693312,14.2025936 2.0087392,14.2025936 C3.1654272,14.2025936 4.0334112,13.4579536 4.6122752,11.9692976 L4.7813792,11.5462256 L0.5695872,0.0311376 L3.3736352,0.0311376 L5.4906592,6.4662416 C5.8363552,7.5669776 6.0584992,8.4102096 6.1575072,8.9955216 C6.3551072,8.1697616 6.5876512,7.3444176 6.8557632,6.5188656 L9.0044032,0.0311376 L11.6393472,0.0311376 L7.4381632,11.5988496 C7.0429632,12.6927216 6.6163552,13.5746416 6.1575072,14.2448176 C5.6988672,14.9152016 5.1574432,15.4127376 4.5332352,15.7370096 C3.9081952,16.0616976 3.1552352,16.2239376 2.2731072,16.2239376 C1.8354752,16.2239376 1.4271712,16.1904496 1.0459072,16.1234736" id="Fill-19" fill="#FEFEFE" mask="url(#mask-2)"></path>
                    </g>
                    <g id="Group-24" transform="translate(0.000000, 0.146016)">
                        <mask id="mask-4" fill="white">
                            <use xlink:href="#path-3"></use>
                        </mask>
                        <g id="Clip-23"></g>
                        <path d="M24.2598304,0.0619632 L9.4976544,0.0619632 C2.5435904,0.0619632 -4.16e-05,2.6055952 -4.16e-05,9.5594512 L-4.16e-05,24.3218352 C-4.16e-05,31.2756912 2.5435904,33.8193232 9.4974464,33.8193232 L24.2552544,33.8193232 C31.2093184,33.8193232 33.7575264,31.2756912 33.7575264,24.3218352 L33.7575264,9.5594512 C33.7575264,2.6055952 31.2138944,0.0619632 24.2598304,0.0619632" id="Fill-22" fill="#CE122D" mask="url(#mask-4)"></path>
                    </g>
                    <path d="M14.7274816,19.7858752 L16.0813536,19.7858752 L15.4022336,18.2065312 L14.7274816,19.7858752 Z M14.3942656,20.5816832 L13.9926176,21.5006272 L13.0784576,21.5006272 L15.0226336,17.0895712 L15.8128256,17.0895712 L17.7493056,21.5006272 L16.8103936,21.5006272 L16.4141536,20.5816832 L14.3942656,20.5816832 Z M29.1065216,21.4975072 L29.9901056,21.4975072 L29.9901056,17.0895712 L29.1065216,17.0895712 L29.1065216,21.4975072 Z M25.5894496,19.6036672 L27.2180896,19.6036672 L27.2180896,18.8001632 L25.5894496,18.8001632 L25.5894496,17.8966112 L27.9537856,17.8966112 L27.9537856,17.0922752 L24.7060736,17.0922752 L24.7060736,21.5002112 L28.0390656,21.5002112 L28.0390656,20.6962912 L25.5894496,20.6962912 L25.5894496,19.6036672 Z M22.0784096,20.1244992 L21.0764736,17.0893632 L20.3455616,17.0893632 L19.3436256,20.1244992 L18.3685216,17.0914432 L17.4154656,17.0914432 L18.9538336,21.5029152 L19.6951456,21.5029152 L20.6987456,18.6052672 L21.7019296,21.5029152 L22.4496896,21.5029152 L23.9841056,17.0914432 L23.0558016,17.0914432 L22.0784096,20.1244992 Z M11.7291616,19.6159392 C11.7291616,20.3333312 11.3732736,20.7166752 10.7259776,20.7166752 C10.0755616,20.7166752 9.7171776,20.3225152 9.7171776,19.5851552 L9.7171776,17.0920672 L8.8215296,17.0920672 L8.8215296,19.6159392 C8.8215296,20.8572832 9.5114656,21.5690592 10.7139136,21.5690592 C11.9282176,21.5690592 12.6243936,20.8437632 12.6243936,19.5791232 L12.6243936,17.0893632 L11.7291616,17.0893632 L11.7291616,19.6159392 Z M6.6849536,17.0895712 L7.5801856,17.0895712 L7.5801856,21.5031232 L6.6849536,21.5031232 L6.6849536,19.7107872 L4.6629856,19.7107872 L4.6629856,21.5031232 L3.7673376,21.5031232 L3.7673376,17.0895712 L4.6629856,17.0895712 L4.6629856,18.8700512 L6.6849536,18.8700512 L6.6849536,17.0895712 Z" id="Fill-25" fill="#FEFEFE"></path>
                    <path d="M16.87868,11.4702432 C13.780312,11.4702432 11.25956,8.9494912 11.25956,5.8509152 L12.053496,5.8509152 C12.053496,8.5116512 14.218152,10.6763072 16.87868,10.6763072 C19.539416,10.6763072 21.703864,8.5116512 21.703864,5.8509152 L22.4978,5.8509152 C22.4978,8.9494912 19.977048,11.4702432 16.87868,11.4702432" id="Fill-27" fill="#FEFEFE"></path>
                    <path d="M48.5011696,8.4371872 C48.8668336,8.1917472 49.1401456,7.8539552 49.3211056,7.4238112 C49.5022736,6.9938752 49.5929616,6.5019552 49.5929616,5.9482592 C49.5929616,5.4051712 49.5126736,4.9211552 49.3525136,4.4962112 C49.1923536,4.0714752 48.9365136,3.7328512 48.5847856,3.4803392 C48.2330576,3.2280352 47.7804496,3.1017792 47.2267536,3.1017792 C46.6973936,3.1017792 46.2481136,3.2296992 45.8791216,3.4855392 C45.5101296,3.7415872 45.2332816,4.0845792 45.0485776,4.5145152 C44.8640816,4.9446592 44.7717296,5.4191072 44.7717296,5.9378592 C44.7717296,6.4844832 44.8588816,6.9739072 45.0329776,7.4057152 C45.2070736,7.8373152 45.4735216,8.1786432 45.8321136,8.4292832 C46.1907056,8.6801312 46.6347856,8.8055552 47.1639376,8.8055552 C47.6897616,8.8055552 48.1355056,8.6826272 48.5011696,8.4371872 M45.1165936,9.3644512 C44.5628976,9.0474592 44.1398256,8.6025472 43.8471696,8.0299232 C43.5547216,7.4570912 43.4084976,6.7910752 43.4084976,6.0318752 C43.4084976,5.2346112 43.5642896,4.5371872 43.8760816,3.9400192 C44.1876656,3.3428512 44.6367376,2.8815072 45.2237136,2.5559872 C45.8102736,2.2302592 46.5024976,2.0673952 47.2997616,2.0673952 C48.0624976,2.0673952 48.7187376,2.2250592 49.2688976,2.5401792 C49.8190576,2.8552992 50.2388016,3.2983392 50.5277136,3.8695072 C50.8168336,4.4406752 50.9613936,5.1021152 50.9613936,5.8544512 C50.9613936,6.6656512 50.8037296,7.3707712 50.4886096,7.9696032 C50.1734896,8.5686432 49.7242096,9.0299872 49.1409776,9.3538432 C48.5577456,9.6776992 47.8725936,9.8397312 47.0857296,9.8397312 C46.3265296,9.8397312 45.6702896,9.6812352 45.1165936,9.3644512" id="Fill-29" fill="#FEFEFE"></path>
                    <polygon id="Fill-31" fill="#FEFEFE" points="53.6094624 3.2636032 51.2642624 3.2636032 51.3790784 2.1720192 57.2656864 2.1720192 57.1454624 3.2636032 54.9152864 3.2636032 54.9152864 9.7351072 53.6094624 9.7351072"></polygon>
                    <path d="M64.2961696,9.7351488 L62.8231136,9.7351488 L60.5719296,6.4027808 L59.6787776,6.4027808 L59.6787776,9.7351488 L58.3729536,9.7351488 L58.3729536,2.1720608 L59.6787776,2.1720608 L59.6787776,5.2953888 L60.3630976,5.2953888 L61.9301696,3.0286048 C62.1598016,2.6908128 62.3904736,2.4462048 62.6221856,2.2947808 C62.8536896,2.1431488 63.1453056,2.0674368 63.4970336,2.0674368 C63.7894816,2.0674368 64.0507296,2.1163168 64.2805696,2.2136608 L64.0089216,3.2322368 C63.8662336,3.1731648 63.7304096,3.1434208 63.6014496,3.1434208 C63.4481536,3.1434208 63.3169056,3.1816928 63.2070816,3.2584448 C63.0974656,3.3349888 62.9832736,3.4585408 62.8651296,3.6293088 L61.4808896,5.6140448 L64.2961696,9.7351488 Z" id="Fill-33" fill="#FEFEFE"></path>
                    <path d="M68.5688016,5.5487536 C68.8473136,5.2962416 68.9866736,4.9403536 68.9866736,4.4806736 C68.9866736,4.0141296 68.8448176,3.6780016 68.5608976,3.4724976 C68.2771856,3.2669936 67.8601456,3.1644496 67.3099856,3.1644496 L66.5996656,3.1644496 L66.5996656,5.8491056 C66.9268496,5.9013136 67.1776976,5.9275216 67.3517936,5.9275216 C67.8844816,5.9275216 68.2902896,5.8012656 68.5688016,5.5487536 L68.5688016,5.5487536 Z M65.2938416,2.1720816 L67.3307856,2.1720816 C68.2884176,2.1720816 69.0214096,2.3669776 69.5297616,2.7569776 C70.0381136,3.1469776 70.2924976,3.7110736 70.2924976,4.4492656 C70.2924976,4.9507536 70.1783056,5.3885936 69.9503376,5.7629936 C69.7221616,6.1371856 69.4045456,6.4244336 68.9970736,6.6247376 C68.5896016,6.8250416 68.1213936,6.9250896 67.5920336,6.9250896 C67.3031216,6.9250896 66.9721936,6.8903536 66.5996656,6.8206736 L66.5996656,9.7351696 L65.2938416,9.7351696 L65.2938416,2.1720816 Z" id="Fill-35" fill="#FEFEFE"></path>
                    <path d="M76.1894432,8.4371872 C76.5551072,8.1917472 76.8284192,7.8539552 77.0093792,7.4238112 C77.1905472,6.9938752 77.2810272,6.5019552 77.2810272,5.9482592 C77.2810272,5.4051712 77.2009472,4.9211552 77.0407872,4.4962112 C76.8806272,4.0714752 76.6247872,3.7328512 76.2730592,3.4803392 C75.9213312,3.2280352 75.4687232,3.1017792 74.9150272,3.1017792 C74.3856672,3.1017792 73.9363872,3.2296992 73.5673952,3.4855392 C73.1981952,3.7415872 72.9215552,4.0845792 72.7368512,4.5145152 C72.5523552,4.9446592 72.4600032,5.4191072 72.4600032,5.9378592 C72.4600032,6.4844832 72.5471552,6.9739072 72.7212512,7.4057152 C72.8953472,7.8373152 73.1615872,8.1786432 73.5203872,8.4292832 C73.8789792,8.6801312 74.3230592,8.8055552 74.8522112,8.8055552 C75.3780352,8.8055552 75.8237792,8.6826272 76.1894432,8.4371872 M72.8048672,9.3644512 C72.2511712,9.0474592 71.8280992,8.6025472 71.5354432,8.0299232 C71.2429952,7.4570912 71.0967712,6.7910752 71.0967712,6.0318752 C71.0967712,5.2346112 71.2525632,4.5371872 71.5643552,3.9400192 C71.8759392,3.3428512 72.3250112,2.8815072 72.9117792,2.5559872 C73.4985472,2.2302592 74.1907712,2.0673952 74.9880352,2.0673952 C75.7507712,2.0673952 76.4070112,2.2250592 76.9571712,2.5401792 C77.5073312,2.8552992 77.9270752,3.2983392 78.2159872,3.8695072 C78.5051072,4.4406752 78.6496672,5.1021152 78.6496672,5.8544512 C78.6496672,6.6656512 78.4920032,7.3707712 78.1768832,7.9696032 C77.8617632,8.5686432 77.4124832,9.0299872 76.8292512,9.3538432 C76.2460192,9.6776992 75.5608672,9.8397312 74.7740032,9.8397312 C74.0148032,9.8397312 73.3585632,9.6812352 72.8048672,9.3644512" id="Fill-37" fill="#FEFEFE"></path>
                    <path d="M82.3528784,1.5138656 C82.0776944,1.3676416 81.8678224,1.1796096 81.7234704,0.9497696 C81.5789104,0.7199296 81.4875984,0.4726176 81.4491184,0.2080416 L82.3894864,0.2080416 C82.4903664,0.7650656 82.8177584,1.0437856 83.3712464,1.0437856 C83.9251504,1.0437856 84.2542064,0.7650656 84.3586224,0.2080416 L85.3039824,0.2080416 C85.2657104,0.4726176 85.1741904,0.7199296 85.0298384,0.9497696 C84.8852784,1.1796096 84.6745744,1.3676416 84.3977264,1.5138656 C84.1208784,1.6600896 83.7787184,1.7333056 83.3712464,1.7333056 C82.9675184,1.7333056 82.6278544,1.6600896 82.3528784,1.5138656 L82.3528784,1.5138656 Z M85.2987824,9.7350656 L85.2987824,5.5775616 C85.2987824,5.0550656 85.3179184,4.4562336 85.3561904,3.7806496 L81.5589424,9.7350656 L80.1068944,9.7350656 L80.1068944,2.1719776 L81.3187024,2.1719776 L81.3187024,6.4915136 C81.3187024,6.9615936 81.3028944,7.4753536 81.2716944,8.0323776 L85.0115344,2.1719776 L86.5105904,2.1719776 L86.5105904,9.7350656 L85.2987824,9.7350656 Z" id="Fill-39" fill="#FEFEFE"></path>
                    <polygon id="Fill-41" fill="#FEFEFE" points="89.9630576 3.2636032 87.6178576 3.2636032 87.7326736 2.1720192 93.6192816 2.1720192 93.4990576 3.2636032 91.2688816 3.2636032 91.2688816 9.7351072 89.9630576 9.7351072"></polygon>
                    <polygon id="Fill-43" fill="#FEFEFE" points="94.726632 2.1719984 99.181992 2.1719984 99.056568 3.2479824 96.032456 3.2479824 96.032456 5.3319344 98.884344 5.3319344 98.884344 6.3401104 96.032456 6.3401104 96.032456 8.6487024 99.2186 8.6487024 99.108776 9.7350864 94.726632 9.7350864"></polygon>
                    <path d="M107.494774,8.4424704 C107.761014,8.2249024 107.894342,7.9174784 107.894342,7.5204064 C107.894342,7.0992064 107.747286,6.7788864 107.452966,6.5594464 C107.158854,6.3402144 106.73495,6.2303904 106.181254,6.2303904 L105.303702,6.2303904 L105.303702,8.7688224 L106.285462,8.7688224 C106.825222,8.7688224 107.228534,8.6600384 107.494774,8.4424704 L107.494774,8.4424704 Z M105.303702,5.2640224 L106.118438,5.2640224 C106.389878,5.2640224 106.629494,5.2101504 106.836662,5.1021984 C107.04383,4.9942464 107.203158,4.8488544 107.314646,4.6660224 C107.425926,4.4831904 107.481878,4.2822624 107.481878,4.0628224 C107.481878,3.7529024 107.36935,3.5211904 107.14471,3.3681024 C106.92007,3.2148064 106.59559,3.1382624 106.170646,3.1382624 L105.303702,3.1382624 L105.303702,5.2640224 Z M108.325318,5.9980544 C108.595094,6.1634144 108.80767,6.3809824 108.96263,6.6509664 C109.11759,6.9207424 109.194966,7.2366944 109.194966,7.5988224 C109.194966,8.0202304 109.08951,8.3919264 108.878806,8.7141184 C108.66831,9.0361024 108.360054,9.2869504 107.954454,9.4662464 C107.548854,9.6455424 107.062134,9.7351904 106.494502,9.7351904 L104.029286,9.7351904 L104.029286,2.1721024 L106.389878,2.1721024 C107.190886,2.1721024 107.79159,2.3268544 108.192198,2.6367744 C108.59239,2.9466944 108.792694,3.3716384 108.792694,3.9111904 C108.792694,4.3604704 108.664774,4.7357024 108.408934,5.0368864 C108.152886,5.3380704 107.817798,5.5496064 107.403462,5.6714944 C107.748118,5.7237024 108.055334,5.8324864 108.325318,5.9980544 L108.325318,5.9980544 Z" id="Fill-45" fill="#FEFEFE"></path>
                </g>
            </g>
        </g>
    </g>
</svg>