<?xml version="1.0" encoding="UTF-8"?>
<svg width="176px" height="52px" viewBox="0 0 176 52" version="1.1" xmlns="http://www.w3.org/2000/svg" xmlns:xlink="http://www.w3.org/1999/xlink">
    <title>ru-google-play-badge-01</title>
    <defs>
        <linearGradient x1="61.6675056%" y1="4.8388%" x2="25.4046121%" y2="71.9684%" id="linearGradient-1">
            <stop stop-color="#00A0FF" offset="0%"></stop>
            <stop stop-color="#00A1FF" offset="0.657445%"></stop>
            <stop stop-color="#00BEFF" offset="26.01%"></stop>
            <stop stop-color="#00D2FF" offset="51.22%"></stop>
            <stop stop-color="#00DFFF" offset="76.04%"></stop>
            <stop stop-color="#00E3FF" offset="100%"></stop>
        </linearGradient>
        <linearGradient x1="107.728079%" y1="49.4282353%" x2="-130.665025%" y2="49.4282353%" id="linearGradient-2">
            <stop stop-color="#FFE000" offset="0%"></stop>
            <stop stop-color="#FFBD00" offset="40.87%"></stop>
            <stop stop-color="#FFA500" offset="77.54%"></stop>
            <stop stop-color="#FF9C00" offset="100%"></stop>
        </linearGradient>
        <linearGradient x1="86.3892216%" y1="31.5463362%" x2="-49.888024%" y2="132.789493%" id="linearGradient-3">
            <stop stop-color="#FF3A44" offset="0%"></stop>
            <stop stop-color="#C31162" offset="100%"></stop>
        </linearGradient>
        <linearGradient x1="-18.5790419%" y1="-9.37670154%" x2="42.2748503%" y2="35.622631%" id="linearGradient-4">
            <stop stop-color="#32A071" offset="0%"></stop>
            <stop stop-color="#2DA771" offset="6.85%"></stop>
            <stop stop-color="#15CF74" offset="47.62%"></stop>
            <stop stop-color="#06E775" offset="80.09%"></stop>
            <stop stop-color="#00F076" offset="100%"></stop>
        </linearGradient>
    </defs>
    <g id="Page-1" stroke="none" stroke-width="1" fill="none" fill-rule="evenodd">
        <g id="Google" transform="translate(-17.000000, -840.000000)" fill-rule="nonzero">
            <g id="ru-google-play-badge-01" transform="translate(17.000000, 840.000000)">
                <path d="M169.481481,51.1642208 L6.51851852,51.1642208 C2.86814815,51.1642208 0,48.3501887 0,44.7686932 L0,6.3955276 C0,2.81403215 2.86814815,0 6.51851852,0 L169.481481,0 C173.131852,0 176,2.81403215 176,6.3955276 L176,44.7686932 C176,48.2222781 173.131852,51.1642208 169.481481,51.1642208 Z" id="Path" fill="#000000"></path>
                <path d="M169.481481,1.02328442 C172.48,1.02328442 174.957037,3.45358491 174.957037,6.3955276 L174.957037,44.7686932 C174.957037,47.7106359 172.48,50.1409364 169.481481,50.1409364 L6.51851852,50.1409364 C3.52,50.1409364 1.04296296,47.7106359 1.04296296,44.7686932 L1.04296296,6.3955276 C1.04296296,3.45358491 3.52,1.02328442 6.51851852,1.02328442 L169.481481,1.02328442 M169.481481,0 L6.51851852,0 C2.86814815,0 0,2.81403215 0,6.3955276 L0,44.7686932 C0,48.3501887 2.86814815,51.1642208 6.51851852,51.1642208 L169.481481,51.1642208 C173.131852,51.1642208 176,48.3501887 176,44.7686932 L176,6.3955276 C176,2.9419427 173.131852,0 169.481481,0 L169.481481,0 Z" id="Shape" fill="#A6A6A6"></path>
                <path d="M88.7822222,27.8845003 C85.6533333,27.8845003 83.1762963,30.1868903 83.1762963,33.3846541 C83.1762963,36.4545073 85.6533333,38.8848078 88.7822222,38.8848078 C91.9111111,38.8848078 94.3881481,36.5824179 94.3881481,33.3846541 C94.3881481,30.0589797 91.9111111,27.8845003 88.7822222,27.8845003 Z M88.7822222,36.5824179 C87.0874074,36.5824179 85.6533333,35.1754018 85.6533333,33.2567435 C85.6533333,31.3380853 87.0874074,29.9310692 88.7822222,29.9310692 C90.477037,29.9310692 91.9111111,31.2101747 91.9111111,33.2567435 C91.9111111,35.1754018 90.477037,36.5824179 88.7822222,36.5824179 Z M76.6577778,27.8845003 C73.5288889,27.8845003 71.0518519,30.1868903 71.0518519,33.3846541 C71.0518519,36.4545073 73.5288889,38.8848078 76.6577778,38.8848078 C79.7866667,38.8848078 82.2637037,36.5824179 82.2637037,33.3846541 C82.2637037,30.0589797 79.7866667,27.8845003 76.6577778,27.8845003 Z M76.6577778,36.5824179 C74.962963,36.5824179 73.5288889,35.1754018 73.5288889,33.2567435 C73.5288889,31.3380853 74.962963,29.9310692 76.6577778,29.9310692 C78.3525926,29.9310692 79.7866667,31.2101747 79.7866667,33.2567435 C79.7866667,35.1754018 78.3525926,36.5824179 76.6577778,36.5824179 Z M62.1866667,29.5473375 L62.1866667,31.8497275 L67.7925926,31.8497275 C67.6622222,33.128833 67.1407407,34.1521174 66.4888889,34.7916702 C65.7066667,35.5591335 64.402963,36.4545073 62.1866667,36.4545073 C58.6666667,36.4545073 56.0592593,33.7683857 56.0592593,30.3148008 C56.0592593,26.8612159 58.797037,24.1750943 62.1866667,24.1750943 C64.0118519,24.1750943 65.4459259,24.9425577 66.4888889,25.8379315 L68.1837037,24.1750943 C66.7496296,22.8959888 64.9244444,21.8727044 62.317037,21.8727044 C57.6237037,21.8727044 53.5822222,25.710021 53.5822222,30.3148008 C53.5822222,34.9195807 57.6237037,38.7568973 62.317037,38.7568973 C64.9244444,38.7568973 66.7496296,37.989434 68.3140741,36.3265968 C69.8785185,34.7916702 70.4,32.6171908 70.4,30.9543536 C70.4,30.4427114 70.4,29.9310692 70.2696296,29.5473375 L62.1866667,29.5473375 L62.1866667,29.5473375 Z M121.374815,31.3380853 C120.853333,30.0589797 119.54963,27.8845003 116.681481,27.8845003 C113.813333,27.8845003 111.466667,30.0589797 111.466667,33.3846541 C111.466667,36.4545073 113.813333,38.8848078 116.942222,38.8848078 C119.419259,38.8848078 120.983704,37.3498812 121.505185,36.4545073 L119.68,35.1754018 C119.028148,36.0707757 118.245926,36.7103284 116.942222,36.7103284 C115.638519,36.7103284 114.856296,36.1986862 114.204444,35.0474913 L121.635556,31.977638 L121.374815,31.3380853 Z M113.813333,33.128833 C113.813333,31.0822642 115.508148,29.9310692 116.681481,29.9310692 C117.594074,29.9310692 118.506667,30.4427114 118.767407,31.0822642 L113.813333,33.128833 Z M107.685926,38.3731656 L110.162963,38.3731656 L110.162963,22.3843466 L107.685926,22.3843466 L107.685926,38.3731656 Z M103.774815,29.0356953 L103.774815,29.0356953 C103.122963,28.3961426 102.08,27.7565898 100.776296,27.7565898 C98.0385185,27.7565898 95.4311111,30.1868903 95.4311111,33.2567435 C95.4311111,36.3265968 97.9081481,38.6289867 100.776296,38.6289867 C102.08,38.6289867 103.122963,37.989434 103.644444,37.3498812 L103.774815,37.3498812 L103.774815,38.1173445 C103.774815,40.1639133 102.601481,41.3151083 100.776296,41.3151083 C99.3422222,41.3151083 98.2992593,40.2918239 98.0385185,39.39645 L95.9525926,40.2918239 C96.6044444,41.69884 98.1688889,43.4895877 100.906667,43.4895877 C103.774815,43.4895877 106.121481,41.8267505 106.121481,37.8615234 L106.121481,28.1403215 L103.774815,28.1403215 L103.774815,29.0356953 L103.774815,29.0356953 Z M100.906667,36.5824179 C99.2118519,36.5824179 97.7777778,35.1754018 97.7777778,33.2567435 C97.7777778,31.3380853 99.2118519,29.9310692 100.906667,29.9310692 C102.601481,29.9310692 103.905185,31.3380853 103.905185,33.2567435 C103.905185,35.1754018 102.601481,36.5824179 100.906667,36.5824179 Z M132.717037,22.3843466 L126.85037,22.3843466 L126.85037,38.3731656 L129.327407,38.3731656 L129.327407,32.3613697 L132.717037,32.3613697 C135.454815,32.3613697 138.062222,30.4427114 138.062222,27.3728581 C138.062222,24.3030049 135.454815,22.3843466 132.717037,22.3843466 Z M132.847407,30.0589797 L129.327407,30.0589797 L129.327407,24.558826 L132.847407,24.558826 C134.672593,24.558826 135.715556,26.0937526 135.715556,27.2449476 C135.585185,28.6519637 134.542222,30.0589797 132.847407,30.0589797 Z M147.84,27.7565898 C146.014815,27.7565898 144.18963,28.5240531 143.537778,30.1868903 L145.754074,31.0822642 C146.275556,30.1868903 147.057778,29.9310692 147.97037,29.9310692 C149.274074,29.9310692 150.447407,30.6985325 150.577778,31.977638 L150.577778,32.1055486 C150.186667,31.8497275 149.143704,31.4659958 148.100741,31.4659958 C145.754074,31.4659958 143.407407,32.7451013 143.407407,35.0474913 C143.407407,37.2219706 145.362963,38.6289867 147.448889,38.6289867 C149.143704,38.6289867 149.925926,37.8615234 150.577778,37.0940601 L150.708148,37.0940601 L150.708148,38.3731656 L153.054815,38.3731656 L153.054815,32.2334591 C152.794074,29.419427 150.577778,27.7565898 147.84,27.7565898 Z M147.579259,36.5824179 C146.797037,36.5824179 145.623704,36.1986862 145.623704,35.1754018 C145.623704,33.8962963 147.057778,33.5125646 148.231111,33.5125646 C149.274074,33.5125646 149.795556,33.7683857 150.447407,34.0242068 C150.186667,35.5591335 148.882963,36.5824179 147.579259,36.5824179 Z M161.268148,28.1403215 L158.53037,35.0474913 L158.4,35.0474913 L155.531852,28.1403215 L152.924444,28.1403215 L157.226667,37.8615234 L154.74963,43.2337666 L157.226667,43.2337666 L163.875556,28.1403215 L161.268148,28.1403215 Z M139.365926,38.3731656 L141.842963,38.3731656 L141.842963,22.3843466 L139.365926,22.3843466 L139.365926,38.3731656 Z" id="Shape" fill="#FFFFFF"></path>
                <g id="Group" transform="translate(11.733333, 8.953739)">
                    <path d="M1.82518519,0.63955276 C1.43407407,1.02328442 1.17333333,1.66283718 1.17333333,2.43030049 L1.17333333,30.6985325 C1.17333333,31.4659958 1.43407407,32.1055486 1.82518519,32.4892802 L1.95555556,32.6171908 L18.1214815,16.7562823 L18.1214815,16.6283718 L18.1214815,16.5004612 L1.82518519,0.63955276 L1.82518519,0.63955276 Z" id="Path" fill="url(#linearGradient-1)"></path>
                    <path d="M23.4666667,22.1285255 L18.1214815,16.8841929 L18.1214815,16.6283718 L18.1214815,16.5004612 L23.4666667,11.2561286 L23.597037,11.3840391 L29.9851852,14.9655346 C31.8103704,15.988819 31.8103704,17.6516562 29.9851852,18.6749406 L23.4666667,22.1285255 L23.4666667,22.1285255 Z" id="Path" fill="url(#linearGradient-2)"></path>
                    <path d="M23.597037,22.000615 L18.1214815,16.6283718 L1.82518519,32.6171908 C2.47703704,33.2567435 3.38962963,33.2567435 4.56296296,32.7451013 L23.597037,22.000615" id="Path" fill="url(#linearGradient-3)"></path>
                    <path d="M23.597037,11.2561286 L4.56296296,0.63955276 C3.38962963,-2.77555756e-17 2.47703704,0.127910552 1.82518519,0.767463312 L18.1214815,16.6283718 L23.597037,11.2561286 Z" id="Path" fill="url(#linearGradient-4)"></path>
                    <g transform="translate(0.000000, 21.744794)" fill="#000000" id="Path">
                        <path d="M23.4666667,0.127910552 L4.56296296,10.6165758 C3.52,11.2561286 2.60740741,11.128218 1.95555556,10.6165758 L1.95555556,10.6165758 L1.82518519,10.7444864 L1.82518519,10.7444864 L1.95555556,10.8723969 L1.95555556,10.8723969 C2.60740741,11.3840391 3.52,11.5119497 4.56296296,10.8723969 L23.4666667,0.127910552 L23.4666667,0.127910552 Z" opacity="0.2"></path>
                        <path d="M1.82518519,10.6165758 C1.43407407,10.2328442 1.3037037,9.5932914 1.3037037,8.82582809 L1.3037037,8.95373864 C1.3037037,9.72120196 1.56444444,10.3607547 1.95555556,10.7444864 L1.95555556,10.6165758 L1.82518519,10.6165758 Z" opacity="0.12"></path>
                    </g>
                    <path d="M29.9851852,18.2912089 L23.4666667,21.8727044 L23.597037,22.000615 L29.9851852,18.4191195 C30.8977778,17.9074773 31.2888889,17.2679245 31.2888889,16.6283718 L31.2888889,16.6283718 C31.2888889,17.2679245 30.7674074,17.7795667 29.9851852,18.2912089 Z" id="Path" fill="#000000" opacity="0.12"></path>
                    <path d="M4.56296296,0.767463312 L29.9851852,14.9655346 C30.7674074,15.4771768 31.2888889,15.988819 31.2888889,16.6283718 L31.2888889,16.6283718 C31.2888889,15.988819 30.8977778,15.3492662 29.9851852,14.837624 L4.56296296,0.63955276 C2.73777778,-0.383731656 1.3037037,0.511642208 1.3037037,2.55821104 L1.3037037,2.68612159 C1.3037037,0.63955276 2.73777778,-0.255821104 4.56296296,0.767463312 Z" id="Path" fill="#FFFFFF" opacity="0.25"></path>
                </g>
                <g id="Group" transform="translate(53.451852, 8.655765)" fill="#FFFFFF" stroke="#FFFFFF" stroke-width="0.5">
                    <path d="M1.43407407,9.63544375 L0.521481481,9.63544375 L0.521481481,7.0772327 L1.3037037,7.0772327 C1.95555556,6.5655905 2.34666667,5.54230608 2.34666667,4.13529001 L2.34666667,0.297973445 L7.56148148,0.297973445 L7.56148148,7.0772327 L8.47407407,7.0772327 L8.47407407,9.63544375 L7.56148148,9.63544375 L7.56148148,7.97260657 L1.56444444,7.97260657 L1.56444444,9.63544375 L1.43407407,9.63544375 Z M3.25925926,4.13529001 C3.25925926,5.28648498 2.99851852,6.30976939 2.47703704,7.0772327 L6.38814815,7.0772327 L6.38814815,1.32125786 L3.12888889,1.32125786 L3.12888889,4.13529001 L3.25925926,4.13529001 Z" id="Shape"></path>
                    <path d="M16.1659259,6.94932215 C15.3837037,7.71678546 14.4711111,8.10051712 13.2977778,8.10051712 C12.1244444,8.10051712 11.2118519,7.71678546 10.4296296,6.94932215 C9.64740741,6.18185884 9.2562963,5.28648498 9.2562963,4.13529001 C9.2562963,2.98409504 9.64740741,2.08872117 10.4296296,1.32125786 C11.2118519,0.553794549 12.1244444,0.170062893 13.2977778,0.170062893 C14.4711111,0.170062893 15.3837037,0.553794549 16.1659259,1.32125786 C16.9481481,2.08872117 17.3392593,2.98409504 17.3392593,4.13529001 C17.3392593,5.28648498 16.9481481,6.18185884 16.1659259,6.94932215 Z M11.2118519,6.30976939 C11.7333333,6.8214116 12.5155556,7.20514326 13.2977778,7.20514326 C14.08,7.20514326 14.8622222,6.94932215 15.3837037,6.30976939 C15.9051852,5.79812718 16.2962963,5.03066387 16.2962963,4.13529001 C16.2962963,3.23991614 16.0355556,2.47245283 15.3837037,1.96081062 C14.8622222,1.44916841 14.08,1.06543676 13.2977778,1.06543676 C12.5155556,1.06543676 11.7333333,1.32125786 11.2118519,1.96081062 C10.6903704,2.47245283 10.2992593,3.23991614 10.2992593,4.13529001 C10.2992593,5.03066387 10.56,5.79812718 11.2118519,6.30976939 Z" id="Shape"></path>
                    <path d="M22.4237037,8.10051712 C21.2503704,8.10051712 20.3377778,7.71678546 19.5555556,6.94932215 C18.7733333,6.18185884 18.3822222,5.28648498 18.3822222,4.13529001 C18.3822222,2.98409504 18.7733333,2.08872117 19.5555556,1.32125786 C20.3377778,0.553794549 21.2503704,0.170062893 22.4237037,0.170062893 C23.597037,0.170062893 24.5096296,0.553794549 25.2918519,1.44916841 L24.64,2.08872117 C24.1185185,1.44916841 23.3362963,1.06543676 22.4237037,1.06543676 C21.5111111,1.06543676 20.8592593,1.32125786 20.2074074,1.96081062 C19.5555556,2.47245283 19.2948148,3.23991614 19.2948148,4.13529001 C19.2948148,5.03066387 19.5555556,5.79812718 20.2074074,6.30976939 C20.7288889,6.8214116 21.5111111,7.20514326 22.4237037,7.20514326 C23.3362963,7.20514326 24.1185185,6.8214116 24.7703704,6.05394829 L25.4222222,6.69350105 C25.0311111,7.0772327 24.64,7.46096436 24.1185185,7.71678546 C23.597037,7.97260657 23.0755556,8.10051712 22.4237037,8.10051712 Z" id="Path"></path>
                    <polygon id="Path" points="29.5940741 7.97260657 28.5511111 7.97260657 28.5511111 1.19334731 26.3348148 1.19334731 26.3348148 0.297973445 31.68 0.297973445 31.68 1.19334731 29.4637037 1.19334731 29.4637037 7.97260657"></polygon>
                    <path d="M38.5896296,0.297973445 L35.5911111,6.8214116 C35.2,7.71678546 34.5481481,8.22842767 33.7659259,8.22842767 C33.5051852,8.22842767 33.2444444,8.22842767 32.9837037,8.10051712 L33.2444444,7.20514326 C33.3748148,7.33305381 33.6355556,7.33305381 33.7659259,7.33305381 C34.0266667,7.33305381 34.157037,7.33305381 34.2874074,7.20514326 C34.4177778,7.0772327 34.5481481,6.94932215 34.6785185,6.69350105 L34.9392593,6.05394829 L32.3318519,0.425883997 L33.5051852,0.425883997 L35.4607407,4.77484277 L35.4607407,4.77484277 L37.2859259,0.425883997 L38.5896296,0.425883997 L38.5896296,0.297973445 Z" id="Path"></path>
                    <polygon id="Path" points="39.762963 7.97260657 39.762963 0.297973445 45.3688889 0.297973445 45.3688889 7.97260657 44.3259259 7.97260657 44.3259259 1.19334731 40.6755556 1.19334731 40.6755556 7.97260657"></polygon>
                    <polygon id="Path" points="47.1940741 7.97260657 47.1940741 0.297973445 48.237037 0.297973445 48.237037 3.6236478 52.1481481 3.6236478 52.1481481 0.297973445 53.1911111 0.297973445 53.1911111 7.97260657 52.1481481 7.97260657 52.1481481 4.51902166 48.237037 4.51902166 48.237037 7.97260657"></polygon>
                    <path d="M61.4044444,6.94932215 C60.6222222,7.71678546 59.7096296,8.10051712 58.5362963,8.10051712 C57.362963,8.10051712 56.4503704,7.71678546 55.6681481,6.94932215 C54.8859259,6.18185884 54.4948148,5.28648498 54.4948148,4.13529001 C54.4948148,2.98409504 54.8859259,2.08872117 55.6681481,1.32125786 C56.4503704,0.553794549 57.362963,0.170062893 58.5362963,0.170062893 C59.7096296,0.170062893 60.6222222,0.553794549 61.4044444,1.32125786 C62.1866667,2.08872117 62.5777778,2.98409504 62.5777778,4.13529001 C62.4474074,5.28648498 62.0562963,6.18185884 61.4044444,6.94932215 Z M56.32,6.30976939 C56.8414815,6.8214116 57.6237037,7.20514326 58.4059259,7.20514326 C59.1881481,7.20514326 59.9703704,6.94932215 60.4918519,6.30976939 C61.0133333,5.79812718 61.4044444,5.03066387 61.4044444,4.13529001 C61.4044444,3.23991614 61.1437037,2.47245283 60.4918519,1.96081062 C59.9703704,1.44916841 59.1881481,1.06543676 58.4059259,1.06543676 C57.6237037,1.06543676 56.8414815,1.32125786 56.32,1.96081062 C55.7985185,2.47245283 55.4074074,3.23991614 55.4074074,4.13529001 C55.4074074,5.03066387 55.7985185,5.79812718 56.32,6.30976939 Z" id="Shape"></path>
                    <path d="M66.6192593,7.97260657 L66.6192593,0.297973445 L69.4874074,0.297973445 C70.1392593,0.297973445 70.6607407,0.553794549 71.0518519,0.937526205 C71.442963,1.32125786 71.7037037,1.83290007 71.7037037,2.47245283 C71.7037037,2.85618449 71.5733333,3.11200559 71.442963,3.49573725 C71.3125926,3.75155835 71.0518519,4.00737945 70.6607407,4.13529001 L70.6607407,4.13529001 C71.0518519,4.26320056 71.3125926,4.51902166 71.5733333,4.77484277 C71.8340741,5.03066387 71.9644444,5.41439553 71.9644444,5.92603774 C71.9644444,6.5655905 71.7037037,7.0772327 71.3125926,7.46096436 C70.7911111,7.84469602 70.2696296,8.10051712 69.6177778,8.10051712 L66.6192593,8.10051712 L66.6192593,7.97260657 Z M67.6622222,3.6236478 L69.4874074,3.6236478 C69.8785185,3.6236478 70.1392593,3.49573725 70.4,3.23991614 C70.6607407,2.98409504 70.7911111,2.72827393 70.7911111,2.47245283 C70.7911111,2.21663173 70.6607407,1.96081062 70.4,1.70498952 C70.1392593,1.44916841 69.8785185,1.32125786 69.4874074,1.32125786 L67.6622222,1.32125786 L67.6622222,3.6236478 Z M67.6622222,7.0772327 L69.7481481,7.0772327 C70.1392593,7.0772327 70.4,6.94932215 70.6607407,6.69350105 C70.9214815,6.43767994 71.0518519,6.18185884 71.0518519,5.79812718 C71.0518519,5.54230608 70.9214815,5.15857442 70.6607407,4.90275332 C70.4,4.64693222 70.1392593,4.51902166 69.7481481,4.51902166 L67.7925926,4.51902166 L67.7925926,7.0772327 L67.6622222,7.0772327 Z" id="Shape"></path>
                </g>
            </g>
        </g>
    </g>
</svg>