<svg xmlns="http://www.w3.org/2000/svg" width="20" height="20" viewBox="0 0 20 20">
    <g fill="#E6E9EE" opacity=".64">
        <path d="M7.514 4.817c0 .772.626 1.397 1.397 1.397.698 0 1.033-.441 1.262-.168.117.14.135.316.135.845V9.63h2.331c.342 0 .39-.033.419-.099.059-.135-.062-.356-.062-.865 0-1.073 1.133-1.93 2.126-1.93.992 0 2.124.813 2.124 1.93 0 .509-.12.73-.062.865.029.066.077.1.419.1h2.331V1.141s.035-.601-.251-.887c-.286-.286-.963-.251-.963-.251h-8.412v2.74c0 .529-.018.705-.135.845-.229.273-.564-.169-1.262-.169-.77 0-1.397.626-1.397 1.397z"/>
        <path d="M.004 9.63h2.74c.528 0 .705.019.845.136.273.229-.169.564-.169 1.261 0 .772.626 1.397 1.397 1.397.772 0 1.397-.625 1.397-1.396 0-.698-.441-1.033-.169-1.262.14-.117.317-.135.846-.135H9.63V7.299c0-.341-.033-.39-.099-.418-.135-.059-.356.061-.866.061-1.072 0-1.928-1.132-1.928-2.125 0-.992.812-2.124 1.928-2.124.51 0 .73.12.866.062.066-.029.1-.077.1-.42V.005H1.361S.562-.052.255.255c-.307.307-.251.995-.251.995v8.38z"/>
        <path d="M12.424 15.184c0-.771-.625-1.397-1.396-1.397-.698 0-1.033.442-1.262.17-.117-.141-.135-.317-.135-.846v-2.74H7.299c-.342 0-.39.033-.418.099-.059.136.061.357.061.866 0 1.072-1.132 1.928-2.125 1.928-.993 0-2.124-.812-2.124-1.928 0-.51.12-.73.062-.866-.029-.065-.078-.099-.42-.099H.004v8.302s-.016.699.287 1.001c.303.303.993.323.993.323H9.63v-2.74c0-.528.018-.704.135-.845.229-.272.564.17 1.261.17.772 0 1.397-.626 1.397-1.398z"/>
        <path d="M19.935 18.709V10.37h-2.74c-.528 0-.705-.018-.845-.135-.273-.228.169-.564.169-1.261 0-.772-.625-1.397-1.397-1.397s-1.397.625-1.397 1.396c0 .698.441 1.033.169 1.262-.14.117-.317.135-.845.135h-2.74v2.332c0 .342.032.39.099.419.135.058.356-.062.865-.062 1.073 0 1.93 1.132 1.93 2.126 0 .992-.813 2.123-1.93 2.123-.509 0-.73-.12-.865-.061-.066.028-.099.077-.099.419v2.331h8.369s.706.05 1.006-.251c.3-.3.25-1.037.25-1.037z"/>
    </g>
</svg>
